<svg xmlns="http://www.w3.org/2000/svg" xmlns:xlink="http://www.w3.org/1999/xlink" version="1.1" x="0px" y="0px" viewBox="0 0 100 125" style="enable-background:new 0 0 100 100;" xml:space="preserve"><g><path style="" d="M49.713,84.16c-17.128,0-30.044-12.3-30.044-28.613c0-11.978,8.288-22.485,17.735-22.485   c6.834,0,10.633,1.407,12.237,2.203c1.775-1.111,6.392-3.445,13.82-3.445c9.774,0,17.727,10.645,17.727,23.728   C81.187,71.324,67.068,84.16,49.713,84.16z M37.404,35.922c-7.784,0-14.874,9.354-14.874,19.624   c0,14.681,11.686,25.752,27.183,25.752c15.777,0,28.613-11.553,28.613-25.752c0-11.311-6.808-20.866-14.866-20.866   c-8.456,0-12.815,3.353-12.857,3.387l-0.856,0.675L48.865,38.1C48.847,38.088,45.654,35.922,37.404,35.922z" fill="#231F20"/><path style="" d="M48.309,37.224C48.286,37.11,45.93,25.744,36.75,21.81l1.127-2.629   c10.587,4.538,13.136,16.965,13.239,17.492L48.309,37.224z" fill="#231F20"/><path style="" d="M45.717,30.276l-0.27-1.406c-0.042-0.218-0.988-5.383,2.348-9.681   c2.499-3.219,6.645-5.025,12.323-5.369l1.656-0.101l-0.144,1.653c-0.01,0.12-1.202,12.075-14.508,14.634L45.717,30.276z    M58.415,16.857c-3.848,0.52-6.655,1.89-8.36,4.088c-1.589,2.047-1.899,4.394-1.906,5.883   C55.231,24.849,57.63,19.604,58.415,16.857z" fill="#231F20"/><path style="" d="M29.683,56.466h-2.861c0-8.613,6.002-16.169,12.844-16.169v2.861   C34.441,43.158,29.683,49.501,29.683,56.466z" fill="#231F20"/></g></svg>