<svg xmlns="http://www.w3.org/2000/svg" xmlns:xlink="http://www.w3.org/1999/xlink" version="1.1" x="0px" y="0px" viewBox="0 0 100 125" style="enable-background:new 0 0 100 100;" xml:space="preserve"><g><path style="" d="M25.219,59.454l-1.341-0.956c-6.583-4.697-11.032-10.469-11.61-15.062   c-0.409-3.254,0.12-5.741,1.576-7.391c2.928-3.322,9.229-2.617,17.14,1.95c4.795,2.769,10.086,4.173,15.726,4.173   c3.739,0,7.619-0.588,11.857-1.798c9.514-2.715,15.416-11.076,15.475-11.162l4.71-8.271l3.188,2.47l-1.446,7.95   c-0.149,0.569-3.127,11.061-12.025,17.365c-7.586,5.372-15.008,7.985-22.691,7.985c-2.082,0-4.2-0.2-6.298-0.594   c-7.009-1.313-12.233-0.564-13.501,1.879L25.219,59.454z M19.14,36.805c-1.428,0-2.488,0.381-3.151,1.132   c-0.876,0.995-1.182,2.772-0.883,5.141c0.443,3.521,4.046,8.237,9.299,12.253c1.379-1.44,3.955-2.734,8.759-2.734   c2.048,0,4.351,0.238,6.843,0.706c9.066,1.699,17.812-0.543,26.807-6.916c8.074-5.718,10.866-15.567,10.893-15.665l0.577-3.188   l-1.825,3.201c-0.331,0.486-6.622,9.396-17.108,12.388c-4.499,1.283-8.634,1.907-12.643,1.907c-6.149,0-11.922-1.533-17.157-4.556   C25.458,38.109,21.759,36.805,19.14,36.805z" fill="#231F20"/><path style="" d="M53.864,76.942c-12.991,0-26.318-5.514-29.707-12.295c-1.689-3.38-1.868-6.191-0.531-8.355   c1.495-2.42,4.784-3.698,9.51-3.698c2.055,0,4.367,0.239,6.871,0.708c9.066,1.699,17.812-0.543,26.807-6.916   c8.074-5.718,10.866-15.567,10.893-15.665l1.698-9.368l6.835,2.279v8.714c0.68,2.632,7.097,29.682-12.932,40.084   C67.623,75.383,60.899,76.942,53.864,76.942z M33.136,55.456c-3.63,0-6.143,0.831-7.075,2.34c-0.974,1.575-0.182,3.899,0.655,5.572   c2.587,5.174,14.112,10.713,27.148,10.713c6.578,0,12.845-1.449,18.125-4.19c18.91-9.819,11.521-36.697,11.444-36.967l-0.054-0.391   v-6.838l-1.749-0.583l-1.136,6.245c-0.149,0.569-3.127,11.061-12.025,17.365c-7.586,5.372-15.008,7.985-22.691,7.985   c-2.082,0-4.2-0.2-6.298-0.594C37.15,55.678,35.015,55.456,33.136,55.456z" fill="#231F20"/><path style="" d="M51.085,68.354c-8.043,0-14.259-2.944-14.671-3.144l0.936-1.931   c0.152,0.074,15.374,7.248,28.51-1.362c13.193-8.643,13.345-18.083,13.345-18.178h2.146c0,0.433-0.162,10.701-14.315,19.972   C61.645,67.245,56.021,68.354,51.085,68.354z" fill="#231F20"/></g></svg>