<svg xmlns="http://www.w3.org/2000/svg" xmlns:xlink="http://www.w3.org/1999/xlink" version="1.1" x="0px" y="0px" viewBox="0 0 100 125" style="enable-background:new 0 0 100 100;" xml:space="preserve"><g><path style="" d="M75.415,43.779H22.938v-5.348c0-10.161,7.531-16.228,20.145-16.228h12.186   c12.615,0,20.147,6.066,20.147,16.228V43.779z M25.799,40.918h46.755v-2.487c0-12.064-12.088-13.366-17.285-13.366H43.083   c-5.197,0-17.284,1.302-17.284,13.366V40.918z" fill="#231F20"/><path style="" d="M55.269,78.597H43.083c-12.615,0-20.145-6.066-20.145-16.228v-5.348h52.478v5.348   C75.415,72.531,67.883,78.597,55.269,78.597z M25.799,59.883v2.487c0,12.064,12.087,13.366,17.284,13.366h12.186   c5.197,0,17.285-1.302,17.285-13.366v-2.487H25.799z" fill="#231F20"/><path style="" d="M76.705,55.095H22.082c-1.689,0-3.063-1.373-3.063-3.063v-3.264c0-1.689,1.373-3.063,3.063-3.063   h54.622c1.689,0,3.063,1.373,3.063,3.063v3.264C79.767,53.721,78.394,55.095,76.705,55.095z M22.082,48.567   c-0.11,0-0.201,0.091-0.201,0.201v3.264c0,0.11,0.091,0.201,0.201,0.201h54.622c0.11,0,0.201-0.091,0.201-0.201v-3.264   c0-0.11-0.091-0.201-0.201-0.201H22.082z" fill="#231F20"/><polygon style="" points="49.533,69.861 33.816,59.652 35.375,57.252 49.472,66.41 62.499,57.28 64.142,59.624  " fill="#231F20"/></g></svg>