<svg xmlns="http://www.w3.org/2000/svg" xmlns:xlink="http://www.w3.org/1999/xlink" version="1.1" x="0px" y="0px" viewBox="0 0 100 125" style="enable-background:new 0 0 100 100;" xml:space="preserve"><g><path style="" d="M48.396,88.378c-11.016,0-17.482-52.616-17.482-57.889c0-7.054,4.943-13.242,10.578-13.242   c1.091,0,2.145,0.066,3.132,0.196l0.437,0.057l0.33,0.293c1.094,0.977,2.101,1.323,2.632,1.323l0.451-0.001l0,0   c0.693,0,1.864-0.5,2.981-1.618l0.432-0.472l0.444-0.094c1.203-0.253,2.473-0.381,3.776-0.381c5.829,0,10.572,6.254,10.572,13.939   C66.68,37.443,59.034,88.378,48.396,88.378z M41.491,20.109c-4.039,0-7.716,4.947-7.716,10.381   c0,12.377,8.299,55.028,14.621,55.028c6.402,0,15.423-43.839,15.423-55.028c0-6.005-3.531-11.078-7.711-11.078   c-0.951,0-1.876,0.08-2.759,0.238c-1.512,1.46-3.313,2.328-4.845,2.329c-0.025,0.006-0.133,0.015-0.242,0.015l-0.275-0.02   c-1.362-0.038-2.821-0.664-4.147-1.744C43.094,20.149,42.306,20.109,41.491,20.109z" fill="#231F20"/><path style="" d="M48.262,21.994l-0.277-0.02c-1.64-0.046-3.441-0.956-4.939-2.453   c-2.518-2.518-3.209-5.623-1.608-7.225c0.869-0.868,2.251-1.084,3.757-0.604c0.728-1.382,1.826-2.191,3.067-2.191   c1.241,0,2.34,0.809,3.068,2.191c1.506-0.482,2.889-0.264,3.757,0.604c1.601,1.601,0.91,4.707-1.608,7.225   c-1.538,1.538-3.398,2.458-4.975,2.458l0,0C48.478,21.984,48.371,21.994,48.262,21.994z M43.667,14.297   c-0.156,0-0.215,0.031-0.217,0.032c-0.124,0.221,0.084,1.633,1.619,3.169c1.118,1.118,2.289,1.619,2.952,1.619l0.453-0.001l0,0   c0.693,0,1.864-0.5,2.981-1.618c1.524-1.526,1.741-2.93,1.604-3.183c-0.011,0.003-0.066-0.018-0.201-0.018   c-0.197,0-0.745,0.053-1.59,0.553l-1.633,0.967l-0.479-1.836c-0.296-1.136-0.768-1.584-0.907-1.619   c-0.113,0.036-0.584,0.485-0.88,1.619l-0.479,1.836l-1.633-0.967C44.411,14.35,43.864,14.297,43.667,14.297z" fill="#231F20"/><path style="" d="M64.677,40.133c0,2.309,1.351,4.181-5.824,4.181S45.86,42.442,45.86,40.133   s5.817-4.181,12.992-4.181S64.677,37.823,64.677,40.133z" fill="#231F20"/><path style="" d="M46.992,53.734c0,1.811-3.991,3.279-8.914,3.279s-3.012-1.468-3.012-3.279   c0-1.811-1.911-3.279,3.012-3.279S46.992,51.923,46.992,53.734z" fill="#231F20"/><path style="" d="M56.887,70.902c0,1.274,0.593,2.307-2.205,2.307s-5.066-1.033-5.066-2.307   c0-1.274,2.268-2.307,5.066-2.307S56.887,69.628,56.887,70.902z" fill="#231F20"/></g></svg>