<svg xmlns="http://www.w3.org/2000/svg" xmlns:xlink="http://www.w3.org/1999/xlink" version="1.1" x="0px" y="0px" viewBox="0 0 100 125" style="enable-background:new 0 0 100 100;" xml:space="preserve"><g><path style="" d="M63.946,81.249H35.135L30.667,56.01h37.748L63.946,81.249z M37.534,78.388h24.013l3.456-19.517   H34.079L37.534,78.388z" fill="#231F20"/><path style="" d="M30.905,58.537c-3.106,0-5.633-2.527-5.633-5.633c0-2.628,1.809-4.841,4.246-5.46v-2.319   c0-10.586,8.612-19.198,19.197-19.198h1.653c10.585,0,19.197,8.612,19.197,19.198v2.342c2.397,0.647,4.171,2.846,4.171,5.438   c0,3.082-2.509,5.607-5.591,5.629L30.905,58.537z M30.822,50.133c-1.49,0.045-2.689,1.27-2.689,2.771   c0,1.499,1.196,2.724,2.684,2.771l37.317-0.003c1.506-0.011,2.74-1.253,2.74-2.768c0-1.516-1.234-2.758-2.751-2.769l-1.42-0.01v-5   c0-9.009-7.328-16.337-16.335-16.337h-1.653c-9.008,0-16.336,7.328-16.336,16.337v5.012L30.822,50.133z" fill="#231F20"/><path style="" d="M36.313,45.661h-2.146c0-8.12,6.606-14.727,14.726-14.727v2.146   C41.957,33.08,36.313,38.724,36.313,45.661z" fill="#231F20"/><path style="" d="M48.52,27.42c-2.17,0-3.934-1.765-3.934-3.934s1.765-3.934,3.934-3.934   c2.17,0,3.934,1.765,3.934,3.934S50.69,27.42,48.52,27.42z M48.52,21.697c-0.986,0-1.788,0.802-1.788,1.788   s0.802,1.788,1.788,1.788c0.986,0,1.788-0.802,1.788-1.788S49.506,21.697,48.52,21.697z" fill="#231F20"/><rect x="38.058" y="55.218" transform="matrix(0.7071 0.7071 -0.7071 0.7071 55.0662 -9.6082)" style="" width="2.146" height="12.898" fill="#231F20"/><rect x="57.462" y="64.781" transform="matrix(0.7071 0.7071 -0.7071 0.7071 69.032 -19.8976)" style="" width="2.146" height="17.198" fill="#231F20"/></g></svg>