<svg xmlns="http://www.w3.org/2000/svg" xmlns:xlink="http://www.w3.org/1999/xlink" version="1.1" x="0px" y="0px" viewBox="0 0 100 125" style="enable-background:new 0 0 100 100;" xml:space="preserve"><g><path style="" d="M48.043,58.602c-4.523,0-8.203-3.68-8.203-8.203s3.68-8.203,8.203-8.203s8.203,3.68,8.203,8.203   S52.566,58.602,48.043,58.602z M48.043,45.058c-2.945,0-5.341,2.396-5.341,5.341c0,2.945,2.396,5.341,5.341,5.341   c2.945,0,5.341-2.396,5.341-5.341C53.384,47.454,50.988,45.058,48.043,45.058z" fill="#231F20"/><path style="" d="M27.532,50.4H24.67c0-12.887,10.485-23.373,23.373-23.373v2.861   C36.733,29.888,27.532,39.09,27.532,50.4z" fill="#231F20"/><path style="" d="M48.043,79.555c-16.077,0-29.155-13.079-29.155-29.155c0-16.075,13.079-29.154,29.155-29.154   c4.977,0,9.906,1.291,14.254,3.735l1.351,0.76l-0.865,1.287c-0.411,0.609-0.627,1.32-0.627,2.057c0,1.046,0.44,2.017,1.238,2.734   l1.114,1l-1.048,1.066c-0.686,0.7-1.065,1.619-1.065,2.592c0,2.037,1.658,3.695,3.695,3.695c0.766,0,1.509-0.243,2.149-0.703   l1.167-0.837l0.833,1.169c0.697,0.978,1.82,1.562,3.005,1.562c0.296,0,0.612-0.05,0.995-0.159l1.364-0.387l0.4,1.359   c0.794,2.701,1.196,5.467,1.196,8.224C77.197,66.476,64.118,79.555,48.043,79.555z M48.043,24.107   c-14.498,0-26.294,11.795-26.294,26.293s11.796,26.294,26.294,26.294S74.336,64.898,74.336,50.4c0-2.068-0.251-4.143-0.749-6.187   c-1.816,0.112-3.526-0.559-4.813-1.762c-0.842,0.383-1.752,0.581-2.684,0.581c-3.616,0-6.557-2.941-6.557-6.557   c0-1.27,0.362-2.488,1.035-3.536c-0.82-1.115-1.274-2.466-1.274-3.856c0-0.773,0.134-1.531,0.395-2.245   C56.075,25.049,52.077,24.107,48.043,24.107z" fill="#231F20"/></g></svg>